<svg width="31" height="38" viewBox="0 0 31 38" fill="none" xmlns="http://www.w3.org/2000/svg">
<circle cx="17" cy="16" r="1" fill="black"/>
<path d="M11.5 25.5L6 24H5.5L2 31L4.5 35.5H26.5L29 31.5L23 21.5L17.5 22.5L11.5 25.5Z" fill="#73CA8E"/>
<path d="M6 23.5C7.66667 24.8333 11.8 26.7 15 23.5C18.2 20.3 22.6667 21.0247 24.5 21.787M24.5 21.787C26.5357 25.1954 28.4427 28.4119 29 30C30.3312 33.7932 27.1667 35.3333 26 35.5C20.4016 35.5032 8.33353 35.7284 4.99999 35.5C1.59038 35.2663 1.66666 31.3333 1.99999 30L11.5 13V4.50001C9.49998 3.29999 9.99998 2.50001 11.5 2C13 1.5 17.0616 1.28575 19.5 2C21.2947 2.52568 19.8114 4.16627 19.5 4.50001V13C20.6391 15.3427 22.6242 18.6463 24.5 21.787Z" stroke="black" stroke-width="3"/>
<line x1="7" y1="31" x2="19" y2="31" stroke="black" stroke-width="2" stroke-linecap="round"/>
<circle cx="12" cy="20" r="1" fill="black"/>
</svg>
